%TF.GenerationSoftware,KiCad,Pcbnew,(5.1.6)-1*%
%TF.CreationDate,2021-03-29T16:14:19-07:00*%
%TF.ProjectId,expansion,65787061-6e73-4696-9f6e-2e6b69636164,1.03*%
%TF.SameCoordinates,Original*%
%TF.FileFunction,Paste,Bot*%
%TF.FilePolarity,Positive*%
%FSLAX46Y46*%
G04 Gerber Fmt 4.6, Leading zero omitted, Abs format (unit mm)*
G04 Created by KiCad (PCBNEW (5.1.6)-1) date 2021-03-29 16:14:19*
%MOMM*%
%LPD*%
G01*
G04 APERTURE LIST*
%ADD10R,5.080000X1.778000*%
%ADD11R,2.200000X1.200000*%
%ADD12R,3.050000X2.750000*%
%ADD13R,0.450000X1.475000*%
%ADD14R,1.300000X0.600000*%
G04 APERTURE END LIST*
D10*
%TO.C,D6*%
X134400000Y-76752000D03*
X134400000Y-70148000D03*
%TD*%
%TO.C,D7*%
X142200000Y-70198000D03*
X142200000Y-76802000D03*
%TD*%
D11*
%TO.C,D5*%
X42300000Y-52620000D03*
X42300000Y-57180000D03*
D12*
X34325000Y-56425000D03*
X37675000Y-53375000D03*
X34325000Y-53375000D03*
X37675000Y-56425000D03*
%TD*%
%TO.C,D1*%
G36*
G01*
X130960001Y-114537499D02*
X130960001Y-115012499D01*
G75*
G02*
X130722501Y-115249999I-237500J0D01*
G01*
X130147501Y-115249999D01*
G75*
G02*
X129910001Y-115012499I0J237500D01*
G01*
X129910001Y-114537499D01*
G75*
G02*
X130147501Y-114299999I237500J0D01*
G01*
X130722501Y-114299999D01*
G75*
G02*
X130960001Y-114537499I0J-237500D01*
G01*
G37*
G36*
G01*
X132710001Y-114537499D02*
X132710001Y-115012499D01*
G75*
G02*
X132472501Y-115249999I-237500J0D01*
G01*
X131897501Y-115249999D01*
G75*
G02*
X131660001Y-115012499I0J237500D01*
G01*
X131660001Y-114537499D01*
G75*
G02*
X131897501Y-114299999I237500J0D01*
G01*
X132472501Y-114299999D01*
G75*
G02*
X132710001Y-114537499I0J-237500D01*
G01*
G37*
%TD*%
%TO.C,D2*%
G36*
G01*
X132625000Y-119562500D02*
X132625000Y-120037500D01*
G75*
G02*
X132387500Y-120275000I-237500J0D01*
G01*
X131812500Y-120275000D01*
G75*
G02*
X131575000Y-120037500I0J237500D01*
G01*
X131575000Y-119562500D01*
G75*
G02*
X131812500Y-119325000I237500J0D01*
G01*
X132387500Y-119325000D01*
G75*
G02*
X132625000Y-119562500I0J-237500D01*
G01*
G37*
G36*
G01*
X130875000Y-119562500D02*
X130875000Y-120037500D01*
G75*
G02*
X130637500Y-120275000I-237500J0D01*
G01*
X130062500Y-120275000D01*
G75*
G02*
X129825000Y-120037500I0J237500D01*
G01*
X129825000Y-119562500D01*
G75*
G02*
X130062500Y-119325000I237500J0D01*
G01*
X130637500Y-119325000D01*
G75*
G02*
X130875000Y-119562500I0J-237500D01*
G01*
G37*
%TD*%
%TO.C,R8*%
G36*
G01*
X99250000Y-34585000D02*
X99250000Y-35835000D01*
G75*
G02*
X99000000Y-36085000I-250000J0D01*
G01*
X98075000Y-36085000D01*
G75*
G02*
X97825000Y-35835000I0J250000D01*
G01*
X97825000Y-34585000D01*
G75*
G02*
X98075000Y-34335000I250000J0D01*
G01*
X99000000Y-34335000D01*
G75*
G02*
X99250000Y-34585000I0J-250000D01*
G01*
G37*
G36*
G01*
X96275000Y-34585000D02*
X96275000Y-35835000D01*
G75*
G02*
X96025000Y-36085000I-250000J0D01*
G01*
X95100000Y-36085000D01*
G75*
G02*
X94850000Y-35835000I0J250000D01*
G01*
X94850000Y-34585000D01*
G75*
G02*
X95100000Y-34335000I250000J0D01*
G01*
X96025000Y-34335000D01*
G75*
G02*
X96275000Y-34585000I0J-250000D01*
G01*
G37*
%TD*%
%TO.C,R9*%
G36*
G01*
X96262500Y-36945000D02*
X96262500Y-38195000D01*
G75*
G02*
X96012500Y-38445000I-250000J0D01*
G01*
X95087500Y-38445000D01*
G75*
G02*
X94837500Y-38195000I0J250000D01*
G01*
X94837500Y-36945000D01*
G75*
G02*
X95087500Y-36695000I250000J0D01*
G01*
X96012500Y-36695000D01*
G75*
G02*
X96262500Y-36945000I0J-250000D01*
G01*
G37*
G36*
G01*
X99237500Y-36945000D02*
X99237500Y-38195000D01*
G75*
G02*
X98987500Y-38445000I-250000J0D01*
G01*
X98062500Y-38445000D01*
G75*
G02*
X97812500Y-38195000I0J250000D01*
G01*
X97812500Y-36945000D01*
G75*
G02*
X98062500Y-36695000I250000J0D01*
G01*
X98987500Y-36695000D01*
G75*
G02*
X99237500Y-36945000I0J-250000D01*
G01*
G37*
%TD*%
%TO.C,R10*%
G36*
G01*
X110937500Y-43450000D02*
X110937500Y-42200000D01*
G75*
G02*
X111187500Y-41950000I250000J0D01*
G01*
X112112500Y-41950000D01*
G75*
G02*
X112362500Y-42200000I0J-250000D01*
G01*
X112362500Y-43450000D01*
G75*
G02*
X112112500Y-43700000I-250000J0D01*
G01*
X111187500Y-43700000D01*
G75*
G02*
X110937500Y-43450000I0J250000D01*
G01*
G37*
G36*
G01*
X113912500Y-43450000D02*
X113912500Y-42200000D01*
G75*
G02*
X114162500Y-41950000I250000J0D01*
G01*
X115087500Y-41950000D01*
G75*
G02*
X115337500Y-42200000I0J-250000D01*
G01*
X115337500Y-43450000D01*
G75*
G02*
X115087500Y-43700000I-250000J0D01*
G01*
X114162500Y-43700000D01*
G75*
G02*
X113912500Y-43450000I0J250000D01*
G01*
G37*
%TD*%
%TO.C,R11*%
G36*
G01*
X96217500Y-39815000D02*
X96217500Y-41065000D01*
G75*
G02*
X95967500Y-41315000I-250000J0D01*
G01*
X95042500Y-41315000D01*
G75*
G02*
X94792500Y-41065000I0J250000D01*
G01*
X94792500Y-39815000D01*
G75*
G02*
X95042500Y-39565000I250000J0D01*
G01*
X95967500Y-39565000D01*
G75*
G02*
X96217500Y-39815000I0J-250000D01*
G01*
G37*
G36*
G01*
X99192500Y-39815000D02*
X99192500Y-41065000D01*
G75*
G02*
X98942500Y-41315000I-250000J0D01*
G01*
X98017500Y-41315000D01*
G75*
G02*
X97767500Y-41065000I0J250000D01*
G01*
X97767500Y-39815000D01*
G75*
G02*
X98017500Y-39565000I250000J0D01*
G01*
X98942500Y-39565000D01*
G75*
G02*
X99192500Y-39815000I0J-250000D01*
G01*
G37*
%TD*%
%TO.C,R12*%
G36*
G01*
X111012500Y-41125000D02*
X111012500Y-39875000D01*
G75*
G02*
X111262500Y-39625000I250000J0D01*
G01*
X112187500Y-39625000D01*
G75*
G02*
X112437500Y-39875000I0J-250000D01*
G01*
X112437500Y-41125000D01*
G75*
G02*
X112187500Y-41375000I-250000J0D01*
G01*
X111262500Y-41375000D01*
G75*
G02*
X111012500Y-41125000I0J250000D01*
G01*
G37*
G36*
G01*
X113987500Y-41125000D02*
X113987500Y-39875000D01*
G75*
G02*
X114237500Y-39625000I250000J0D01*
G01*
X115162500Y-39625000D01*
G75*
G02*
X115412500Y-39875000I0J-250000D01*
G01*
X115412500Y-41125000D01*
G75*
G02*
X115162500Y-41375000I-250000J0D01*
G01*
X114237500Y-41375000D01*
G75*
G02*
X113987500Y-41125000I0J250000D01*
G01*
G37*
%TD*%
%TO.C,R13*%
G36*
G01*
X96207500Y-42185000D02*
X96207500Y-43435000D01*
G75*
G02*
X95957500Y-43685000I-250000J0D01*
G01*
X95032500Y-43685000D01*
G75*
G02*
X94782500Y-43435000I0J250000D01*
G01*
X94782500Y-42185000D01*
G75*
G02*
X95032500Y-41935000I250000J0D01*
G01*
X95957500Y-41935000D01*
G75*
G02*
X96207500Y-42185000I0J-250000D01*
G01*
G37*
G36*
G01*
X99182500Y-42185000D02*
X99182500Y-43435000D01*
G75*
G02*
X98932500Y-43685000I-250000J0D01*
G01*
X98007500Y-43685000D01*
G75*
G02*
X97757500Y-43435000I0J250000D01*
G01*
X97757500Y-42185000D01*
G75*
G02*
X98007500Y-41935000I250000J0D01*
G01*
X98932500Y-41935000D01*
G75*
G02*
X99182500Y-42185000I0J-250000D01*
G01*
G37*
%TD*%
%TO.C,R14*%
G36*
G01*
X110987500Y-38825000D02*
X110987500Y-37575000D01*
G75*
G02*
X111237500Y-37325000I250000J0D01*
G01*
X112162500Y-37325000D01*
G75*
G02*
X112412500Y-37575000I0J-250000D01*
G01*
X112412500Y-38825000D01*
G75*
G02*
X112162500Y-39075000I-250000J0D01*
G01*
X111237500Y-39075000D01*
G75*
G02*
X110987500Y-38825000I0J250000D01*
G01*
G37*
G36*
G01*
X113962500Y-38825000D02*
X113962500Y-37575000D01*
G75*
G02*
X114212500Y-37325000I250000J0D01*
G01*
X115137500Y-37325000D01*
G75*
G02*
X115387500Y-37575000I0J-250000D01*
G01*
X115387500Y-38825000D01*
G75*
G02*
X115137500Y-39075000I-250000J0D01*
G01*
X114212500Y-39075000D01*
G75*
G02*
X113962500Y-38825000I0J250000D01*
G01*
G37*
%TD*%
%TO.C,R15*%
G36*
G01*
X128225000Y-114937500D02*
X128225000Y-114462500D01*
G75*
G02*
X128462500Y-114225000I237500J0D01*
G01*
X129037500Y-114225000D01*
G75*
G02*
X129275000Y-114462500I0J-237500D01*
G01*
X129275000Y-114937500D01*
G75*
G02*
X129037500Y-115175000I-237500J0D01*
G01*
X128462500Y-115175000D01*
G75*
G02*
X128225000Y-114937500I0J237500D01*
G01*
G37*
G36*
G01*
X126475000Y-114937500D02*
X126475000Y-114462500D01*
G75*
G02*
X126712500Y-114225000I237500J0D01*
G01*
X127287500Y-114225000D01*
G75*
G02*
X127525000Y-114462500I0J-237500D01*
G01*
X127525000Y-114937500D01*
G75*
G02*
X127287500Y-115175000I-237500J0D01*
G01*
X126712500Y-115175000D01*
G75*
G02*
X126475000Y-114937500I0J237500D01*
G01*
G37*
%TD*%
%TO.C,R16*%
G36*
G01*
X126200000Y-120137500D02*
X126200000Y-119662500D01*
G75*
G02*
X126437500Y-119425000I237500J0D01*
G01*
X127012500Y-119425000D01*
G75*
G02*
X127250000Y-119662500I0J-237500D01*
G01*
X127250000Y-120137500D01*
G75*
G02*
X127012500Y-120375000I-237500J0D01*
G01*
X126437500Y-120375000D01*
G75*
G02*
X126200000Y-120137500I0J237500D01*
G01*
G37*
G36*
G01*
X127950000Y-120137500D02*
X127950000Y-119662500D01*
G75*
G02*
X128187500Y-119425000I237500J0D01*
G01*
X128762500Y-119425000D01*
G75*
G02*
X129000000Y-119662500I0J-237500D01*
G01*
X129000000Y-120137500D01*
G75*
G02*
X128762500Y-120375000I-237500J0D01*
G01*
X128187500Y-120375000D01*
G75*
G02*
X127950000Y-120137500I0J237500D01*
G01*
G37*
%TD*%
%TO.C,U4*%
G36*
G01*
X73700000Y-106062500D02*
X73900000Y-106062500D01*
G75*
G02*
X74000000Y-106162500I0J-100000D01*
G01*
X74000000Y-107437500D01*
G75*
G02*
X73900000Y-107537500I-100000J0D01*
G01*
X73700000Y-107537500D01*
G75*
G02*
X73600000Y-107437500I0J100000D01*
G01*
X73600000Y-106162500D01*
G75*
G02*
X73700000Y-106062500I100000J0D01*
G01*
G37*
G36*
G01*
X74350000Y-106062500D02*
X74550000Y-106062500D01*
G75*
G02*
X74650000Y-106162500I0J-100000D01*
G01*
X74650000Y-107437500D01*
G75*
G02*
X74550000Y-107537500I-100000J0D01*
G01*
X74350000Y-107537500D01*
G75*
G02*
X74250000Y-107437500I0J100000D01*
G01*
X74250000Y-106162500D01*
G75*
G02*
X74350000Y-106062500I100000J0D01*
G01*
G37*
G36*
G01*
X75000000Y-106062500D02*
X75200000Y-106062500D01*
G75*
G02*
X75300000Y-106162500I0J-100000D01*
G01*
X75300000Y-107437500D01*
G75*
G02*
X75200000Y-107537500I-100000J0D01*
G01*
X75000000Y-107537500D01*
G75*
G02*
X74900000Y-107437500I0J100000D01*
G01*
X74900000Y-106162500D01*
G75*
G02*
X75000000Y-106062500I100000J0D01*
G01*
G37*
G36*
G01*
X75650000Y-106062500D02*
X75850000Y-106062500D01*
G75*
G02*
X75950000Y-106162500I0J-100000D01*
G01*
X75950000Y-107437500D01*
G75*
G02*
X75850000Y-107537500I-100000J0D01*
G01*
X75650000Y-107537500D01*
G75*
G02*
X75550000Y-107437500I0J100000D01*
G01*
X75550000Y-106162500D01*
G75*
G02*
X75650000Y-106062500I100000J0D01*
G01*
G37*
G36*
G01*
X76300000Y-106062500D02*
X76500000Y-106062500D01*
G75*
G02*
X76600000Y-106162500I0J-100000D01*
G01*
X76600000Y-107437500D01*
G75*
G02*
X76500000Y-107537500I-100000J0D01*
G01*
X76300000Y-107537500D01*
G75*
G02*
X76200000Y-107437500I0J100000D01*
G01*
X76200000Y-106162500D01*
G75*
G02*
X76300000Y-106062500I100000J0D01*
G01*
G37*
G36*
G01*
X76950000Y-106062500D02*
X77150000Y-106062500D01*
G75*
G02*
X77250000Y-106162500I0J-100000D01*
G01*
X77250000Y-107437500D01*
G75*
G02*
X77150000Y-107537500I-100000J0D01*
G01*
X76950000Y-107537500D01*
G75*
G02*
X76850000Y-107437500I0J100000D01*
G01*
X76850000Y-106162500D01*
G75*
G02*
X76950000Y-106062500I100000J0D01*
G01*
G37*
G36*
G01*
X77600000Y-106062500D02*
X77800000Y-106062500D01*
G75*
G02*
X77900000Y-106162500I0J-100000D01*
G01*
X77900000Y-107437500D01*
G75*
G02*
X77800000Y-107537500I-100000J0D01*
G01*
X77600000Y-107537500D01*
G75*
G02*
X77500000Y-107437500I0J100000D01*
G01*
X77500000Y-106162500D01*
G75*
G02*
X77600000Y-106062500I100000J0D01*
G01*
G37*
G36*
G01*
X77600000Y-100337500D02*
X77800000Y-100337500D01*
G75*
G02*
X77900000Y-100437500I0J-100000D01*
G01*
X77900000Y-101712500D01*
G75*
G02*
X77800000Y-101812500I-100000J0D01*
G01*
X77600000Y-101812500D01*
G75*
G02*
X77500000Y-101712500I0J100000D01*
G01*
X77500000Y-100437500D01*
G75*
G02*
X77600000Y-100337500I100000J0D01*
G01*
G37*
G36*
G01*
X76950000Y-100337500D02*
X77150000Y-100337500D01*
G75*
G02*
X77250000Y-100437500I0J-100000D01*
G01*
X77250000Y-101712500D01*
G75*
G02*
X77150000Y-101812500I-100000J0D01*
G01*
X76950000Y-101812500D01*
G75*
G02*
X76850000Y-101712500I0J100000D01*
G01*
X76850000Y-100437500D01*
G75*
G02*
X76950000Y-100337500I100000J0D01*
G01*
G37*
G36*
G01*
X76300000Y-100337500D02*
X76500000Y-100337500D01*
G75*
G02*
X76600000Y-100437500I0J-100000D01*
G01*
X76600000Y-101712500D01*
G75*
G02*
X76500000Y-101812500I-100000J0D01*
G01*
X76300000Y-101812500D01*
G75*
G02*
X76200000Y-101712500I0J100000D01*
G01*
X76200000Y-100437500D01*
G75*
G02*
X76300000Y-100337500I100000J0D01*
G01*
G37*
G36*
G01*
X75650000Y-100337500D02*
X75850000Y-100337500D01*
G75*
G02*
X75950000Y-100437500I0J-100000D01*
G01*
X75950000Y-101712500D01*
G75*
G02*
X75850000Y-101812500I-100000J0D01*
G01*
X75650000Y-101812500D01*
G75*
G02*
X75550000Y-101712500I0J100000D01*
G01*
X75550000Y-100437500D01*
G75*
G02*
X75650000Y-100337500I100000J0D01*
G01*
G37*
G36*
G01*
X75000000Y-100337500D02*
X75200000Y-100337500D01*
G75*
G02*
X75300000Y-100437500I0J-100000D01*
G01*
X75300000Y-101712500D01*
G75*
G02*
X75200000Y-101812500I-100000J0D01*
G01*
X75000000Y-101812500D01*
G75*
G02*
X74900000Y-101712500I0J100000D01*
G01*
X74900000Y-100437500D01*
G75*
G02*
X75000000Y-100337500I100000J0D01*
G01*
G37*
G36*
G01*
X74350000Y-100337500D02*
X74550000Y-100337500D01*
G75*
G02*
X74650000Y-100437500I0J-100000D01*
G01*
X74650000Y-101712500D01*
G75*
G02*
X74550000Y-101812500I-100000J0D01*
G01*
X74350000Y-101812500D01*
G75*
G02*
X74250000Y-101712500I0J100000D01*
G01*
X74250000Y-100437500D01*
G75*
G02*
X74350000Y-100337500I100000J0D01*
G01*
G37*
G36*
G01*
X73700000Y-100337500D02*
X73900000Y-100337500D01*
G75*
G02*
X74000000Y-100437500I0J-100000D01*
G01*
X74000000Y-101712500D01*
G75*
G02*
X73900000Y-101812500I-100000J0D01*
G01*
X73700000Y-101812500D01*
G75*
G02*
X73600000Y-101712500I0J100000D01*
G01*
X73600000Y-100437500D01*
G75*
G02*
X73700000Y-100337500I100000J0D01*
G01*
G37*
%TD*%
D13*
%TO.C,U1*%
X44750000Y-95862000D03*
X45400000Y-95862000D03*
X46050000Y-95862000D03*
X46700000Y-95862000D03*
X47350000Y-95862000D03*
X48000000Y-95862000D03*
X48650000Y-95862000D03*
X48650000Y-101738000D03*
X48000000Y-101738000D03*
X47350000Y-101738000D03*
X46700000Y-101738000D03*
X46050000Y-101738000D03*
X45400000Y-101738000D03*
X44750000Y-101738000D03*
%TD*%
%TO.C,U2*%
X53350000Y-98900000D03*
X54000000Y-98900000D03*
X54650000Y-98900000D03*
X55300000Y-98900000D03*
X55950000Y-98900000D03*
X56600000Y-98900000D03*
X57250000Y-98900000D03*
X57250000Y-104776000D03*
X56600000Y-104776000D03*
X55950000Y-104776000D03*
X55300000Y-104776000D03*
X54650000Y-104776000D03*
X54000000Y-104776000D03*
X53350000Y-104776000D03*
%TD*%
%TO.C,U3*%
X64750000Y-100762000D03*
X65400000Y-100762000D03*
X66050000Y-100762000D03*
X66700000Y-100762000D03*
X67350000Y-100762000D03*
X68000000Y-100762000D03*
X68650000Y-100762000D03*
X68650000Y-106638000D03*
X68000000Y-106638000D03*
X67350000Y-106638000D03*
X66700000Y-106638000D03*
X66050000Y-106638000D03*
X65400000Y-106638000D03*
X64750000Y-106638000D03*
%TD*%
%TO.C,D4*%
G36*
G01*
X82975000Y-73262500D02*
X82975000Y-72787500D01*
G75*
G02*
X83212500Y-72550000I237500J0D01*
G01*
X83787500Y-72550000D01*
G75*
G02*
X84025000Y-72787500I0J-237500D01*
G01*
X84025000Y-73262500D01*
G75*
G02*
X83787500Y-73500000I-237500J0D01*
G01*
X83212500Y-73500000D01*
G75*
G02*
X82975000Y-73262500I0J237500D01*
G01*
G37*
G36*
G01*
X81225000Y-73262500D02*
X81225000Y-72787500D01*
G75*
G02*
X81462500Y-72550000I237500J0D01*
G01*
X82037500Y-72550000D01*
G75*
G02*
X82275000Y-72787500I0J-237500D01*
G01*
X82275000Y-73262500D01*
G75*
G02*
X82037500Y-73500000I-237500J0D01*
G01*
X81462500Y-73500000D01*
G75*
G02*
X81225000Y-73262500I0J237500D01*
G01*
G37*
%TD*%
%TO.C,R2*%
G36*
G01*
X120825000Y-34875000D02*
X120825000Y-36125000D01*
G75*
G02*
X120575000Y-36375000I-250000J0D01*
G01*
X119650000Y-36375000D01*
G75*
G02*
X119400000Y-36125000I0J250000D01*
G01*
X119400000Y-34875000D01*
G75*
G02*
X119650000Y-34625000I250000J0D01*
G01*
X120575000Y-34625000D01*
G75*
G02*
X120825000Y-34875000I0J-250000D01*
G01*
G37*
G36*
G01*
X123800000Y-34875000D02*
X123800000Y-36125000D01*
G75*
G02*
X123550000Y-36375000I-250000J0D01*
G01*
X122625000Y-36375000D01*
G75*
G02*
X122375000Y-36125000I0J250000D01*
G01*
X122375000Y-34875000D01*
G75*
G02*
X122625000Y-34625000I250000J0D01*
G01*
X123550000Y-34625000D01*
G75*
G02*
X123800000Y-34875000I0J-250000D01*
G01*
G37*
%TD*%
%TO.C,R3*%
G36*
G01*
X135512500Y-38825000D02*
X135512500Y-37575000D01*
G75*
G02*
X135762500Y-37325000I250000J0D01*
G01*
X136687500Y-37325000D01*
G75*
G02*
X136937500Y-37575000I0J-250000D01*
G01*
X136937500Y-38825000D01*
G75*
G02*
X136687500Y-39075000I-250000J0D01*
G01*
X135762500Y-39075000D01*
G75*
G02*
X135512500Y-38825000I0J250000D01*
G01*
G37*
G36*
G01*
X138487500Y-38825000D02*
X138487500Y-37575000D01*
G75*
G02*
X138737500Y-37325000I250000J0D01*
G01*
X139662500Y-37325000D01*
G75*
G02*
X139912500Y-37575000I0J-250000D01*
G01*
X139912500Y-38825000D01*
G75*
G02*
X139662500Y-39075000I-250000J0D01*
G01*
X138737500Y-39075000D01*
G75*
G02*
X138487500Y-38825000I0J250000D01*
G01*
G37*
%TD*%
%TO.C,R4*%
G36*
G01*
X138487500Y-34225000D02*
X138487500Y-32975000D01*
G75*
G02*
X138737500Y-32725000I250000J0D01*
G01*
X139662500Y-32725000D01*
G75*
G02*
X139912500Y-32975000I0J-250000D01*
G01*
X139912500Y-34225000D01*
G75*
G02*
X139662500Y-34475000I-250000J0D01*
G01*
X138737500Y-34475000D01*
G75*
G02*
X138487500Y-34225000I0J250000D01*
G01*
G37*
G36*
G01*
X135512500Y-34225000D02*
X135512500Y-32975000D01*
G75*
G02*
X135762500Y-32725000I250000J0D01*
G01*
X136687500Y-32725000D01*
G75*
G02*
X136937500Y-32975000I0J-250000D01*
G01*
X136937500Y-34225000D01*
G75*
G02*
X136687500Y-34475000I-250000J0D01*
G01*
X135762500Y-34475000D01*
G75*
G02*
X135512500Y-34225000I0J250000D01*
G01*
G37*
%TD*%
%TO.C,R5*%
G36*
G01*
X123787500Y-41675000D02*
X123787500Y-42925000D01*
G75*
G02*
X123537500Y-43175000I-250000J0D01*
G01*
X122612500Y-43175000D01*
G75*
G02*
X122362500Y-42925000I0J250000D01*
G01*
X122362500Y-41675000D01*
G75*
G02*
X122612500Y-41425000I250000J0D01*
G01*
X123537500Y-41425000D01*
G75*
G02*
X123787500Y-41675000I0J-250000D01*
G01*
G37*
G36*
G01*
X120812500Y-41675000D02*
X120812500Y-42925000D01*
G75*
G02*
X120562500Y-43175000I-250000J0D01*
G01*
X119637500Y-43175000D01*
G75*
G02*
X119387500Y-42925000I0J250000D01*
G01*
X119387500Y-41675000D01*
G75*
G02*
X119637500Y-41425000I250000J0D01*
G01*
X120562500Y-41425000D01*
G75*
G02*
X120812500Y-41675000I0J-250000D01*
G01*
G37*
%TD*%
%TO.C,R6*%
G36*
G01*
X133462500Y-34156250D02*
X133462500Y-33643750D01*
G75*
G02*
X133681250Y-33425000I218750J0D01*
G01*
X134118750Y-33425000D01*
G75*
G02*
X134337500Y-33643750I0J-218750D01*
G01*
X134337500Y-34156250D01*
G75*
G02*
X134118750Y-34375000I-218750J0D01*
G01*
X133681250Y-34375000D01*
G75*
G02*
X133462500Y-34156250I0J218750D01*
G01*
G37*
G36*
G01*
X131887500Y-34156250D02*
X131887500Y-33643750D01*
G75*
G02*
X132106250Y-33425000I218750J0D01*
G01*
X132543750Y-33425000D01*
G75*
G02*
X132762500Y-33643750I0J-218750D01*
G01*
X132762500Y-34156250D01*
G75*
G02*
X132543750Y-34375000I-218750J0D01*
G01*
X132106250Y-34375000D01*
G75*
G02*
X131887500Y-34156250I0J218750D01*
G01*
G37*
%TD*%
%TO.C,R7*%
G36*
G01*
X123800000Y-37125000D02*
X123800000Y-38375000D01*
G75*
G02*
X123550000Y-38625000I-250000J0D01*
G01*
X122625000Y-38625000D01*
G75*
G02*
X122375000Y-38375000I0J250000D01*
G01*
X122375000Y-37125000D01*
G75*
G02*
X122625000Y-36875000I250000J0D01*
G01*
X123550000Y-36875000D01*
G75*
G02*
X123800000Y-37125000I0J-250000D01*
G01*
G37*
G36*
G01*
X120825000Y-37125000D02*
X120825000Y-38375000D01*
G75*
G02*
X120575000Y-38625000I-250000J0D01*
G01*
X119650000Y-38625000D01*
G75*
G02*
X119400000Y-38375000I0J250000D01*
G01*
X119400000Y-37125000D01*
G75*
G02*
X119650000Y-36875000I250000J0D01*
G01*
X120575000Y-36875000D01*
G75*
G02*
X120825000Y-37125000I0J-250000D01*
G01*
G37*
%TD*%
%TO.C,R17*%
G36*
G01*
X138475000Y-36525000D02*
X138475000Y-35275000D01*
G75*
G02*
X138725000Y-35025000I250000J0D01*
G01*
X139650000Y-35025000D01*
G75*
G02*
X139900000Y-35275000I0J-250000D01*
G01*
X139900000Y-36525000D01*
G75*
G02*
X139650000Y-36775000I-250000J0D01*
G01*
X138725000Y-36775000D01*
G75*
G02*
X138475000Y-36525000I0J250000D01*
G01*
G37*
G36*
G01*
X135500000Y-36525000D02*
X135500000Y-35275000D01*
G75*
G02*
X135750000Y-35025000I250000J0D01*
G01*
X136675000Y-35025000D01*
G75*
G02*
X136925000Y-35275000I0J-250000D01*
G01*
X136925000Y-36525000D01*
G75*
G02*
X136675000Y-36775000I-250000J0D01*
G01*
X135750000Y-36775000D01*
G75*
G02*
X135500000Y-36525000I0J250000D01*
G01*
G37*
%TD*%
%TO.C,R18*%
G36*
G01*
X138487500Y-31925000D02*
X138487500Y-30675000D01*
G75*
G02*
X138737500Y-30425000I250000J0D01*
G01*
X139662500Y-30425000D01*
G75*
G02*
X139912500Y-30675000I0J-250000D01*
G01*
X139912500Y-31925000D01*
G75*
G02*
X139662500Y-32175000I-250000J0D01*
G01*
X138737500Y-32175000D01*
G75*
G02*
X138487500Y-31925000I0J250000D01*
G01*
G37*
G36*
G01*
X135512500Y-31925000D02*
X135512500Y-30675000D01*
G75*
G02*
X135762500Y-30425000I250000J0D01*
G01*
X136687500Y-30425000D01*
G75*
G02*
X136937500Y-30675000I0J-250000D01*
G01*
X136937500Y-31925000D01*
G75*
G02*
X136687500Y-32175000I-250000J0D01*
G01*
X135762500Y-32175000D01*
G75*
G02*
X135512500Y-31925000I0J250000D01*
G01*
G37*
%TD*%
%TO.C,R19*%
G36*
G01*
X123850000Y-39375000D02*
X123850000Y-40625000D01*
G75*
G02*
X123600000Y-40875000I-250000J0D01*
G01*
X122675000Y-40875000D01*
G75*
G02*
X122425000Y-40625000I0J250000D01*
G01*
X122425000Y-39375000D01*
G75*
G02*
X122675000Y-39125000I250000J0D01*
G01*
X123600000Y-39125000D01*
G75*
G02*
X123850000Y-39375000I0J-250000D01*
G01*
G37*
G36*
G01*
X120875000Y-39375000D02*
X120875000Y-40625000D01*
G75*
G02*
X120625000Y-40875000I-250000J0D01*
G01*
X119700000Y-40875000D01*
G75*
G02*
X119450000Y-40625000I0J250000D01*
G01*
X119450000Y-39375000D01*
G75*
G02*
X119700000Y-39125000I250000J0D01*
G01*
X120625000Y-39125000D01*
G75*
G02*
X120875000Y-39375000I0J-250000D01*
G01*
G37*
%TD*%
%TO.C,R21*%
G36*
G01*
X111012500Y-45825000D02*
X111012500Y-44575000D01*
G75*
G02*
X111262500Y-44325000I250000J0D01*
G01*
X112187500Y-44325000D01*
G75*
G02*
X112437500Y-44575000I0J-250000D01*
G01*
X112437500Y-45825000D01*
G75*
G02*
X112187500Y-46075000I-250000J0D01*
G01*
X111262500Y-46075000D01*
G75*
G02*
X111012500Y-45825000I0J250000D01*
G01*
G37*
G36*
G01*
X113987500Y-45825000D02*
X113987500Y-44575000D01*
G75*
G02*
X114237500Y-44325000I250000J0D01*
G01*
X115162500Y-44325000D01*
G75*
G02*
X115412500Y-44575000I0J-250000D01*
G01*
X115412500Y-45825000D01*
G75*
G02*
X115162500Y-46075000I-250000J0D01*
G01*
X114237500Y-46075000D01*
G75*
G02*
X113987500Y-45825000I0J250000D01*
G01*
G37*
%TD*%
%TO.C,R22*%
G36*
G01*
X100587500Y-32556250D02*
X100587500Y-32043750D01*
G75*
G02*
X100806250Y-31825000I218750J0D01*
G01*
X101243750Y-31825000D01*
G75*
G02*
X101462500Y-32043750I0J-218750D01*
G01*
X101462500Y-32556250D01*
G75*
G02*
X101243750Y-32775000I-218750J0D01*
G01*
X100806250Y-32775000D01*
G75*
G02*
X100587500Y-32556250I0J218750D01*
G01*
G37*
G36*
G01*
X102162500Y-32556250D02*
X102162500Y-32043750D01*
G75*
G02*
X102381250Y-31825000I218750J0D01*
G01*
X102818750Y-31825000D01*
G75*
G02*
X103037500Y-32043750I0J-218750D01*
G01*
X103037500Y-32556250D01*
G75*
G02*
X102818750Y-32775000I-218750J0D01*
G01*
X102381250Y-32775000D01*
G75*
G02*
X102162500Y-32556250I0J218750D01*
G01*
G37*
%TD*%
%TO.C,R24*%
G36*
G01*
X82950000Y-74862500D02*
X82950000Y-74387500D01*
G75*
G02*
X83187500Y-74150000I237500J0D01*
G01*
X83762500Y-74150000D01*
G75*
G02*
X84000000Y-74387500I0J-237500D01*
G01*
X84000000Y-74862500D01*
G75*
G02*
X83762500Y-75100000I-237500J0D01*
G01*
X83187500Y-75100000D01*
G75*
G02*
X82950000Y-74862500I0J237500D01*
G01*
G37*
G36*
G01*
X81200000Y-74862500D02*
X81200000Y-74387500D01*
G75*
G02*
X81437500Y-74150000I237500J0D01*
G01*
X82012500Y-74150000D01*
G75*
G02*
X82250000Y-74387500I0J-237500D01*
G01*
X82250000Y-74862500D01*
G75*
G02*
X82012500Y-75100000I-237500J0D01*
G01*
X81437500Y-75100000D01*
G75*
G02*
X81200000Y-74862500I0J237500D01*
G01*
G37*
%TD*%
%TO.C,R25*%
G36*
G01*
X81543750Y-42425000D02*
X81031250Y-42425000D01*
G75*
G02*
X80812500Y-42206250I0J218750D01*
G01*
X80812500Y-41768750D01*
G75*
G02*
X81031250Y-41550000I218750J0D01*
G01*
X81543750Y-41550000D01*
G75*
G02*
X81762500Y-41768750I0J-218750D01*
G01*
X81762500Y-42206250D01*
G75*
G02*
X81543750Y-42425000I-218750J0D01*
G01*
G37*
G36*
G01*
X81543750Y-40850000D02*
X81031250Y-40850000D01*
G75*
G02*
X80812500Y-40631250I0J218750D01*
G01*
X80812500Y-40193750D01*
G75*
G02*
X81031250Y-39975000I218750J0D01*
G01*
X81543750Y-39975000D01*
G75*
G02*
X81762500Y-40193750I0J-218750D01*
G01*
X81762500Y-40631250D01*
G75*
G02*
X81543750Y-40850000I-218750J0D01*
G01*
G37*
%TD*%
%TO.C,R26*%
G36*
G01*
X78556250Y-40950000D02*
X78043750Y-40950000D01*
G75*
G02*
X77825000Y-40731250I0J218750D01*
G01*
X77825000Y-40293750D01*
G75*
G02*
X78043750Y-40075000I218750J0D01*
G01*
X78556250Y-40075000D01*
G75*
G02*
X78775000Y-40293750I0J-218750D01*
G01*
X78775000Y-40731250D01*
G75*
G02*
X78556250Y-40950000I-218750J0D01*
G01*
G37*
G36*
G01*
X78556250Y-42525000D02*
X78043750Y-42525000D01*
G75*
G02*
X77825000Y-42306250I0J218750D01*
G01*
X77825000Y-41868750D01*
G75*
G02*
X78043750Y-41650000I218750J0D01*
G01*
X78556250Y-41650000D01*
G75*
G02*
X78775000Y-41868750I0J-218750D01*
G01*
X78775000Y-42306250D01*
G75*
G02*
X78556250Y-42525000I-218750J0D01*
G01*
G37*
%TD*%
%TO.C,R27*%
G36*
G01*
X58987500Y-38256250D02*
X58987500Y-37743750D01*
G75*
G02*
X59206250Y-37525000I218750J0D01*
G01*
X59643750Y-37525000D01*
G75*
G02*
X59862500Y-37743750I0J-218750D01*
G01*
X59862500Y-38256250D01*
G75*
G02*
X59643750Y-38475000I-218750J0D01*
G01*
X59206250Y-38475000D01*
G75*
G02*
X58987500Y-38256250I0J218750D01*
G01*
G37*
G36*
G01*
X60562500Y-38256250D02*
X60562500Y-37743750D01*
G75*
G02*
X60781250Y-37525000I218750J0D01*
G01*
X61218750Y-37525000D01*
G75*
G02*
X61437500Y-37743750I0J-218750D01*
G01*
X61437500Y-38256250D01*
G75*
G02*
X61218750Y-38475000I-218750J0D01*
G01*
X60781250Y-38475000D01*
G75*
G02*
X60562500Y-38256250I0J218750D01*
G01*
G37*
%TD*%
%TO.C,C4*%
G36*
G01*
X49425000Y-105237500D02*
X49425000Y-104762500D01*
G75*
G02*
X49662500Y-104525000I237500J0D01*
G01*
X50237500Y-104525000D01*
G75*
G02*
X50475000Y-104762500I0J-237500D01*
G01*
X50475000Y-105237500D01*
G75*
G02*
X50237500Y-105475000I-237500J0D01*
G01*
X49662500Y-105475000D01*
G75*
G02*
X49425000Y-105237500I0J237500D01*
G01*
G37*
G36*
G01*
X51175000Y-105237500D02*
X51175000Y-104762500D01*
G75*
G02*
X51412500Y-104525000I237500J0D01*
G01*
X51987500Y-104525000D01*
G75*
G02*
X52225000Y-104762500I0J-237500D01*
G01*
X52225000Y-105237500D01*
G75*
G02*
X51987500Y-105475000I-237500J0D01*
G01*
X51412500Y-105475000D01*
G75*
G02*
X51175000Y-105237500I0J237500D01*
G01*
G37*
%TD*%
%TO.C,C5*%
G36*
G01*
X45100000Y-103662500D02*
X45100000Y-104137500D01*
G75*
G02*
X44862500Y-104375000I-237500J0D01*
G01*
X44287500Y-104375000D01*
G75*
G02*
X44050000Y-104137500I0J237500D01*
G01*
X44050000Y-103662500D01*
G75*
G02*
X44287500Y-103425000I237500J0D01*
G01*
X44862500Y-103425000D01*
G75*
G02*
X45100000Y-103662500I0J-237500D01*
G01*
G37*
G36*
G01*
X43350000Y-103662500D02*
X43350000Y-104137500D01*
G75*
G02*
X43112500Y-104375000I-237500J0D01*
G01*
X42537500Y-104375000D01*
G75*
G02*
X42300000Y-104137500I0J237500D01*
G01*
X42300000Y-103662500D01*
G75*
G02*
X42537500Y-103425000I237500J0D01*
G01*
X43112500Y-103425000D01*
G75*
G02*
X43350000Y-103662500I0J-237500D01*
G01*
G37*
%TD*%
%TO.C,C6*%
G36*
G01*
X71675000Y-107137500D02*
X71675000Y-106662500D01*
G75*
G02*
X71912500Y-106425000I237500J0D01*
G01*
X72487500Y-106425000D01*
G75*
G02*
X72725000Y-106662500I0J-237500D01*
G01*
X72725000Y-107137500D01*
G75*
G02*
X72487500Y-107375000I-237500J0D01*
G01*
X71912500Y-107375000D01*
G75*
G02*
X71675000Y-107137500I0J237500D01*
G01*
G37*
G36*
G01*
X69925000Y-107137500D02*
X69925000Y-106662500D01*
G75*
G02*
X70162500Y-106425000I237500J0D01*
G01*
X70737500Y-106425000D01*
G75*
G02*
X70975000Y-106662500I0J-237500D01*
G01*
X70975000Y-107137500D01*
G75*
G02*
X70737500Y-107375000I-237500J0D01*
G01*
X70162500Y-107375000D01*
G75*
G02*
X69925000Y-107137500I0J237500D01*
G01*
G37*
%TD*%
%TO.C,C7*%
G36*
G01*
X62575000Y-106737500D02*
X62575000Y-106262500D01*
G75*
G02*
X62812500Y-106025000I237500J0D01*
G01*
X63387500Y-106025000D01*
G75*
G02*
X63625000Y-106262500I0J-237500D01*
G01*
X63625000Y-106737500D01*
G75*
G02*
X63387500Y-106975000I-237500J0D01*
G01*
X62812500Y-106975000D01*
G75*
G02*
X62575000Y-106737500I0J237500D01*
G01*
G37*
G36*
G01*
X60825000Y-106737500D02*
X60825000Y-106262500D01*
G75*
G02*
X61062500Y-106025000I237500J0D01*
G01*
X61637500Y-106025000D01*
G75*
G02*
X61875000Y-106262500I0J-237500D01*
G01*
X61875000Y-106737500D01*
G75*
G02*
X61637500Y-106975000I-237500J0D01*
G01*
X61062500Y-106975000D01*
G75*
G02*
X60825000Y-106737500I0J237500D01*
G01*
G37*
%TD*%
%TO.C,C1*%
G36*
G01*
X86025000Y-76637500D02*
X86025000Y-77112500D01*
G75*
G02*
X85787500Y-77350000I-237500J0D01*
G01*
X85212500Y-77350000D01*
G75*
G02*
X84975000Y-77112500I0J237500D01*
G01*
X84975000Y-76637500D01*
G75*
G02*
X85212500Y-76400000I237500J0D01*
G01*
X85787500Y-76400000D01*
G75*
G02*
X86025000Y-76637500I0J-237500D01*
G01*
G37*
G36*
G01*
X87775000Y-76637500D02*
X87775000Y-77112500D01*
G75*
G02*
X87537500Y-77350000I-237500J0D01*
G01*
X86962500Y-77350000D01*
G75*
G02*
X86725000Y-77112500I0J237500D01*
G01*
X86725000Y-76637500D01*
G75*
G02*
X86962500Y-76400000I237500J0D01*
G01*
X87537500Y-76400000D01*
G75*
G02*
X87775000Y-76637500I0J-237500D01*
G01*
G37*
%TD*%
%TO.C,C2*%
G36*
G01*
X87365000Y-73842500D02*
X87365000Y-74317500D01*
G75*
G02*
X87127500Y-74555000I-237500J0D01*
G01*
X86552500Y-74555000D01*
G75*
G02*
X86315000Y-74317500I0J237500D01*
G01*
X86315000Y-73842500D01*
G75*
G02*
X86552500Y-73605000I237500J0D01*
G01*
X87127500Y-73605000D01*
G75*
G02*
X87365000Y-73842500I0J-237500D01*
G01*
G37*
G36*
G01*
X85615000Y-73842500D02*
X85615000Y-74317500D01*
G75*
G02*
X85377500Y-74555000I-237500J0D01*
G01*
X84802500Y-74555000D01*
G75*
G02*
X84565000Y-74317500I0J237500D01*
G01*
X84565000Y-73842500D01*
G75*
G02*
X84802500Y-73605000I237500J0D01*
G01*
X85377500Y-73605000D01*
G75*
G02*
X85615000Y-73842500I0J-237500D01*
G01*
G37*
%TD*%
D14*
%TO.C,Q1*%
X77200000Y-83250000D03*
X79300000Y-84200000D03*
X79300000Y-82300000D03*
%TD*%
%TO.C,Q2*%
X78100000Y-80750000D03*
X78100000Y-78850000D03*
X80200000Y-79800000D03*
%TD*%
%TO.C,Q3*%
X86400000Y-83450000D03*
X88500000Y-84400000D03*
X88500000Y-82500000D03*
%TD*%
%TO.C,Q4*%
X86910000Y-80890000D03*
X86910000Y-78990000D03*
X89010000Y-79940000D03*
%TD*%
%TO.C,R1*%
G36*
G01*
X80762500Y-84881250D02*
X80762500Y-84368750D01*
G75*
G02*
X80981250Y-84150000I218750J0D01*
G01*
X81418750Y-84150000D01*
G75*
G02*
X81637500Y-84368750I0J-218750D01*
G01*
X81637500Y-84881250D01*
G75*
G02*
X81418750Y-85100000I-218750J0D01*
G01*
X80981250Y-85100000D01*
G75*
G02*
X80762500Y-84881250I0J218750D01*
G01*
G37*
G36*
G01*
X82337500Y-84881250D02*
X82337500Y-84368750D01*
G75*
G02*
X82556250Y-84150000I218750J0D01*
G01*
X82993750Y-84150000D01*
G75*
G02*
X83212500Y-84368750I0J-218750D01*
G01*
X83212500Y-84881250D01*
G75*
G02*
X82993750Y-85100000I-218750J0D01*
G01*
X82556250Y-85100000D01*
G75*
G02*
X82337500Y-84881250I0J218750D01*
G01*
G37*
%TD*%
%TO.C,R20*%
G36*
G01*
X82387500Y-83206250D02*
X82387500Y-82693750D01*
G75*
G02*
X82606250Y-82475000I218750J0D01*
G01*
X83043750Y-82475000D01*
G75*
G02*
X83262500Y-82693750I0J-218750D01*
G01*
X83262500Y-83206250D01*
G75*
G02*
X83043750Y-83425000I-218750J0D01*
G01*
X82606250Y-83425000D01*
G75*
G02*
X82387500Y-83206250I0J218750D01*
G01*
G37*
G36*
G01*
X80812500Y-83206250D02*
X80812500Y-82693750D01*
G75*
G02*
X81031250Y-82475000I218750J0D01*
G01*
X81468750Y-82475000D01*
G75*
G02*
X81687500Y-82693750I0J-218750D01*
G01*
X81687500Y-83206250D01*
G75*
G02*
X81468750Y-83425000I-218750J0D01*
G01*
X81031250Y-83425000D01*
G75*
G02*
X80812500Y-83206250I0J218750D01*
G01*
G37*
%TD*%
%TO.C,R23*%
G36*
G01*
X83907500Y-79073750D02*
X83907500Y-79586250D01*
G75*
G02*
X83688750Y-79805000I-218750J0D01*
G01*
X83251250Y-79805000D01*
G75*
G02*
X83032500Y-79586250I0J218750D01*
G01*
X83032500Y-79073750D01*
G75*
G02*
X83251250Y-78855000I218750J0D01*
G01*
X83688750Y-78855000D01*
G75*
G02*
X83907500Y-79073750I0J-218750D01*
G01*
G37*
G36*
G01*
X82332500Y-79073750D02*
X82332500Y-79586250D01*
G75*
G02*
X82113750Y-79805000I-218750J0D01*
G01*
X81676250Y-79805000D01*
G75*
G02*
X81457500Y-79586250I0J218750D01*
G01*
X81457500Y-79073750D01*
G75*
G02*
X81676250Y-78855000I218750J0D01*
G01*
X82113750Y-78855000D01*
G75*
G02*
X82332500Y-79073750I0J-218750D01*
G01*
G37*
%TD*%
%TO.C,R28*%
G36*
G01*
X91450000Y-84806250D02*
X91450000Y-84293750D01*
G75*
G02*
X91668750Y-84075000I218750J0D01*
G01*
X92106250Y-84075000D01*
G75*
G02*
X92325000Y-84293750I0J-218750D01*
G01*
X92325000Y-84806250D01*
G75*
G02*
X92106250Y-85025000I-218750J0D01*
G01*
X91668750Y-85025000D01*
G75*
G02*
X91450000Y-84806250I0J218750D01*
G01*
G37*
G36*
G01*
X89875000Y-84806250D02*
X89875000Y-84293750D01*
G75*
G02*
X90093750Y-84075000I218750J0D01*
G01*
X90531250Y-84075000D01*
G75*
G02*
X90750000Y-84293750I0J-218750D01*
G01*
X90750000Y-84806250D01*
G75*
G02*
X90531250Y-85025000I-218750J0D01*
G01*
X90093750Y-85025000D01*
G75*
G02*
X89875000Y-84806250I0J218750D01*
G01*
G37*
%TD*%
%TO.C,R29*%
G36*
G01*
X86157500Y-81943750D02*
X86157500Y-82456250D01*
G75*
G02*
X85938750Y-82675000I-218750J0D01*
G01*
X85501250Y-82675000D01*
G75*
G02*
X85282500Y-82456250I0J218750D01*
G01*
X85282500Y-81943750D01*
G75*
G02*
X85501250Y-81725000I218750J0D01*
G01*
X85938750Y-81725000D01*
G75*
G02*
X86157500Y-81943750I0J-218750D01*
G01*
G37*
G36*
G01*
X84582500Y-81943750D02*
X84582500Y-82456250D01*
G75*
G02*
X84363750Y-82675000I-218750J0D01*
G01*
X83926250Y-82675000D01*
G75*
G02*
X83707500Y-82456250I0J218750D01*
G01*
X83707500Y-81943750D01*
G75*
G02*
X83926250Y-81725000I218750J0D01*
G01*
X84363750Y-81725000D01*
G75*
G02*
X84582500Y-81943750I0J-218750D01*
G01*
G37*
%TD*%
%TO.C,R30*%
G36*
G01*
X91502500Y-79723750D02*
X91502500Y-80236250D01*
G75*
G02*
X91283750Y-80455000I-218750J0D01*
G01*
X90846250Y-80455000D01*
G75*
G02*
X90627500Y-80236250I0J218750D01*
G01*
X90627500Y-79723750D01*
G75*
G02*
X90846250Y-79505000I218750J0D01*
G01*
X91283750Y-79505000D01*
G75*
G02*
X91502500Y-79723750I0J-218750D01*
G01*
G37*
G36*
G01*
X93077500Y-79723750D02*
X93077500Y-80236250D01*
G75*
G02*
X92858750Y-80455000I-218750J0D01*
G01*
X92421250Y-80455000D01*
G75*
G02*
X92202500Y-80236250I0J218750D01*
G01*
X92202500Y-79723750D01*
G75*
G02*
X92421250Y-79505000I218750J0D01*
G01*
X92858750Y-79505000D01*
G75*
G02*
X93077500Y-79723750I0J-218750D01*
G01*
G37*
%TD*%
%TO.C,U5*%
G36*
G01*
X88600000Y-77150000D02*
X88600000Y-76950000D01*
G75*
G02*
X88700000Y-76850000I100000J0D01*
G01*
X89975000Y-76850000D01*
G75*
G02*
X90075000Y-76950000I0J-100000D01*
G01*
X90075000Y-77150000D01*
G75*
G02*
X89975000Y-77250000I-100000J0D01*
G01*
X88700000Y-77250000D01*
G75*
G02*
X88600000Y-77150000I0J100000D01*
G01*
G37*
G36*
G01*
X88600000Y-76500000D02*
X88600000Y-76300000D01*
G75*
G02*
X88700000Y-76200000I100000J0D01*
G01*
X89975000Y-76200000D01*
G75*
G02*
X90075000Y-76300000I0J-100000D01*
G01*
X90075000Y-76500000D01*
G75*
G02*
X89975000Y-76600000I-100000J0D01*
G01*
X88700000Y-76600000D01*
G75*
G02*
X88600000Y-76500000I0J100000D01*
G01*
G37*
G36*
G01*
X88600000Y-75850000D02*
X88600000Y-75650000D01*
G75*
G02*
X88700000Y-75550000I100000J0D01*
G01*
X89975000Y-75550000D01*
G75*
G02*
X90075000Y-75650000I0J-100000D01*
G01*
X90075000Y-75850000D01*
G75*
G02*
X89975000Y-75950000I-100000J0D01*
G01*
X88700000Y-75950000D01*
G75*
G02*
X88600000Y-75850000I0J100000D01*
G01*
G37*
G36*
G01*
X88600000Y-75200000D02*
X88600000Y-75000000D01*
G75*
G02*
X88700000Y-74900000I100000J0D01*
G01*
X89975000Y-74900000D01*
G75*
G02*
X90075000Y-75000000I0J-100000D01*
G01*
X90075000Y-75200000D01*
G75*
G02*
X89975000Y-75300000I-100000J0D01*
G01*
X88700000Y-75300000D01*
G75*
G02*
X88600000Y-75200000I0J100000D01*
G01*
G37*
G36*
G01*
X88600000Y-74550000D02*
X88600000Y-74350000D01*
G75*
G02*
X88700000Y-74250000I100000J0D01*
G01*
X89975000Y-74250000D01*
G75*
G02*
X90075000Y-74350000I0J-100000D01*
G01*
X90075000Y-74550000D01*
G75*
G02*
X89975000Y-74650000I-100000J0D01*
G01*
X88700000Y-74650000D01*
G75*
G02*
X88600000Y-74550000I0J100000D01*
G01*
G37*
G36*
G01*
X88600000Y-73900000D02*
X88600000Y-73700000D01*
G75*
G02*
X88700000Y-73600000I100000J0D01*
G01*
X89975000Y-73600000D01*
G75*
G02*
X90075000Y-73700000I0J-100000D01*
G01*
X90075000Y-73900000D01*
G75*
G02*
X89975000Y-74000000I-100000J0D01*
G01*
X88700000Y-74000000D01*
G75*
G02*
X88600000Y-73900000I0J100000D01*
G01*
G37*
G36*
G01*
X88600000Y-73250000D02*
X88600000Y-73050000D01*
G75*
G02*
X88700000Y-72950000I100000J0D01*
G01*
X89975000Y-72950000D01*
G75*
G02*
X90075000Y-73050000I0J-100000D01*
G01*
X90075000Y-73250000D01*
G75*
G02*
X89975000Y-73350000I-100000J0D01*
G01*
X88700000Y-73350000D01*
G75*
G02*
X88600000Y-73250000I0J100000D01*
G01*
G37*
G36*
G01*
X94325000Y-73250000D02*
X94325000Y-73050000D01*
G75*
G02*
X94425000Y-72950000I100000J0D01*
G01*
X95700000Y-72950000D01*
G75*
G02*
X95800000Y-73050000I0J-100000D01*
G01*
X95800000Y-73250000D01*
G75*
G02*
X95700000Y-73350000I-100000J0D01*
G01*
X94425000Y-73350000D01*
G75*
G02*
X94325000Y-73250000I0J100000D01*
G01*
G37*
G36*
G01*
X94325000Y-73900000D02*
X94325000Y-73700000D01*
G75*
G02*
X94425000Y-73600000I100000J0D01*
G01*
X95700000Y-73600000D01*
G75*
G02*
X95800000Y-73700000I0J-100000D01*
G01*
X95800000Y-73900000D01*
G75*
G02*
X95700000Y-74000000I-100000J0D01*
G01*
X94425000Y-74000000D01*
G75*
G02*
X94325000Y-73900000I0J100000D01*
G01*
G37*
G36*
G01*
X94325000Y-74550000D02*
X94325000Y-74350000D01*
G75*
G02*
X94425000Y-74250000I100000J0D01*
G01*
X95700000Y-74250000D01*
G75*
G02*
X95800000Y-74350000I0J-100000D01*
G01*
X95800000Y-74550000D01*
G75*
G02*
X95700000Y-74650000I-100000J0D01*
G01*
X94425000Y-74650000D01*
G75*
G02*
X94325000Y-74550000I0J100000D01*
G01*
G37*
G36*
G01*
X94325000Y-75200000D02*
X94325000Y-75000000D01*
G75*
G02*
X94425000Y-74900000I100000J0D01*
G01*
X95700000Y-74900000D01*
G75*
G02*
X95800000Y-75000000I0J-100000D01*
G01*
X95800000Y-75200000D01*
G75*
G02*
X95700000Y-75300000I-100000J0D01*
G01*
X94425000Y-75300000D01*
G75*
G02*
X94325000Y-75200000I0J100000D01*
G01*
G37*
G36*
G01*
X94325000Y-75850000D02*
X94325000Y-75650000D01*
G75*
G02*
X94425000Y-75550000I100000J0D01*
G01*
X95700000Y-75550000D01*
G75*
G02*
X95800000Y-75650000I0J-100000D01*
G01*
X95800000Y-75850000D01*
G75*
G02*
X95700000Y-75950000I-100000J0D01*
G01*
X94425000Y-75950000D01*
G75*
G02*
X94325000Y-75850000I0J100000D01*
G01*
G37*
G36*
G01*
X94325000Y-76500000D02*
X94325000Y-76300000D01*
G75*
G02*
X94425000Y-76200000I100000J0D01*
G01*
X95700000Y-76200000D01*
G75*
G02*
X95800000Y-76300000I0J-100000D01*
G01*
X95800000Y-76500000D01*
G75*
G02*
X95700000Y-76600000I-100000J0D01*
G01*
X94425000Y-76600000D01*
G75*
G02*
X94325000Y-76500000I0J100000D01*
G01*
G37*
G36*
G01*
X94325000Y-77150000D02*
X94325000Y-76950000D01*
G75*
G02*
X94425000Y-76850000I100000J0D01*
G01*
X95700000Y-76850000D01*
G75*
G02*
X95800000Y-76950000I0J-100000D01*
G01*
X95800000Y-77150000D01*
G75*
G02*
X95700000Y-77250000I-100000J0D01*
G01*
X94425000Y-77250000D01*
G75*
G02*
X94325000Y-77150000I0J100000D01*
G01*
G37*
%TD*%
M02*
