M48
INCH,TZ
T1C0.0157
T2C0.0320
T3C0.0394
T4C0.0472
T5C0.0472
T6C0.0550
T7C0.0551
T8C0.0630
T9C0.0650
%
G90
G05
T1
X11693Y-23071
X11693Y-23701
X11693Y-24331
X11713Y-20600
X11713Y-21211
X11722Y-21860
X11722Y-22451
X12008Y-20305
X12008Y-20896
X12008Y-23386
X12008Y-24016
X12008Y-24646
X12018Y-21545
X12018Y-22156
X12018Y-22766
X12303Y-20600
X12303Y-21211
X12313Y-21860
X12313Y-22451
X12323Y-23071
X12323Y-23701
X12323Y-24331
X12598Y-20305
X12598Y-20896
X12608Y-21545
X12608Y-22156
X12608Y-22766
X12638Y-23386
X12638Y-24016
X12638Y-24646
X12953Y-23071
X12953Y-23701
X12953Y-24331
X13199Y-22766
X13219Y-20325
X13268Y-23386
X13268Y-24016
X13268Y-24646
X13583Y-23071
X13583Y-23701
X13583Y-24331
X13789Y-22766
X13809Y-20325
X13898Y-23386
X13898Y-24016
X13898Y-24646
X14213Y-23071
X14213Y-23701
X14213Y-24331
X14370Y-43720
X14370Y-44311
X14370Y-44941
X14370Y-45531
X14370Y-46161
X14400Y-20325
X14419Y-22766
X14528Y-23386
X14528Y-24016
X14528Y-24646
X14665Y-44016
X14665Y-44626
X14665Y-45236
X14665Y-45846
X14665Y-46457
X14843Y-23071
X14843Y-23701
X14843Y-24331
X14961Y-43720
X14961Y-44311
X14961Y-44941
X14961Y-45531
X14961Y-46161
X15010Y-20325
X15010Y-22766
X15157Y-23386
X15197Y-24055
X15197Y-24685
X15256Y-44016
X15256Y-44626
X15256Y-45236
X15256Y-45846
X15256Y-46457
X15472Y-23071
X15512Y-23701
X15512Y-24409
X17008Y-41850
X17589Y-38701
X18386Y-38809
X18580Y-41526
X18612Y-41039
X18775Y-42618
X18799Y-38396
X18937Y-41693
X18976Y-17224
X18976Y-17815
X18976Y-18406
X19272Y-17520
X19272Y-18110
X19567Y-17224
X19567Y-17815
X19567Y-18406
X19567Y-37795
X19803Y-40394
X19862Y-17520
X19862Y-18110
X20157Y-17224
X20157Y-17815
X20157Y-18406
X20940Y-39680
X21772Y-40039
X22205Y-42087
X22362Y-39646
X22596Y-42693
X22752Y-42023
X23031Y-39173
X24055Y-41260
X24449Y-24882
X24449Y-25197
X24488Y-18248
X24488Y-18839
X24488Y-19429
X24764Y-24882
X24764Y-25197
X24783Y-18543
X24783Y-19134
X25079Y-18248
X25079Y-18839
X25079Y-19429
X25148Y-40792
X25374Y-18543
X25374Y-19134
X25427Y-41070
X25519Y-41453
X25669Y-18248
X25669Y-18839
X25669Y-19429
X26732Y-25030
X28228Y-41575
X28661Y-26014
X29439Y-43061
X29567Y-40758
X30118Y-40906
X30354Y-41378
X30827Y-24537
X31417Y-18327
X31417Y-18917
X31417Y-19508
X31713Y-18622
X31713Y-19213
X32008Y-18327
X32008Y-18917
X32008Y-19508
X32303Y-18622
X32303Y-19213
X32465Y-30469
X32598Y-18327
X32598Y-18917
X32598Y-19508
X32795Y-40807
X32795Y-41398
X33091Y-41102
X33091Y-41713
X33386Y-40807
X33386Y-41398
X33555Y-31752
X33681Y-41102
X33681Y-41713
X33976Y-40807
X33976Y-41398
X34272Y-41102
X34272Y-41713
X34523Y-29739
X34562Y-28401
X34567Y-40807
X34567Y-41398
X34862Y-41102
X34862Y-41713
X34984Y-31949
X35034Y-30740
X35157Y-40807
X35157Y-41398
X35453Y-41102
X35453Y-41713
X35748Y-40807
X35748Y-41398
X36043Y-41102
X36043Y-41713
X36134Y-30835
X36339Y-40807
X36339Y-41398
X36535Y-26014
X36634Y-41102
X36634Y-41713
X36929Y-40807
X36929Y-41398
X37224Y-41102
X37224Y-41713
X38071Y-18209
X38071Y-18799
X38071Y-19390
X38366Y-18504
X38366Y-19094
X38638Y-41543
X38661Y-18209
X38661Y-18799
X38661Y-19390
X38957Y-18504
X38957Y-19094
X39252Y-18209
X39252Y-18799
X39252Y-19390
X39488Y-16693
X41692Y-14090
X41692Y-14872
X42953Y-15075
X43386Y-15276
X45276Y-18819
X46850Y-18327
X46850Y-18917
X46850Y-19508
X47146Y-18622
X47146Y-19213
X47283Y-49782
X47441Y-18327
X47441Y-18917
X47441Y-19508
X47736Y-18622
X47736Y-19213
X47913Y-30886
X48031Y-18327
X48031Y-18917
X48031Y-19508
X48327Y-18622
X48327Y-19213
X48377Y-30771
X48622Y-18327
X48622Y-18917
X48622Y-19508
X49094Y-16496
X51063Y-15210
X51325Y-32484
X51378Y-32874
X51417Y-33465
X51732Y-14606
X52559Y-34567
X52583Y-31270
X52906Y-38098
X52906Y-38709
X52906Y-39319
X52972Y-33126
X52972Y-33717
X53201Y-38413
X53201Y-39004
X53268Y-33421
X53268Y-34031
X53496Y-38098
X53496Y-38709
X53496Y-39319
X53563Y-33126
X53563Y-33717
X53791Y-38413
X53791Y-39004
X53858Y-33421
X53858Y-34031
X54016Y-16634
X54016Y-17224
X54016Y-17815
X54016Y-18406
X54016Y-18996
X54087Y-38098
X54087Y-38709
X54087Y-39319
X54154Y-33126
X54154Y-33717
X54311Y-16339
X54311Y-16929
X54311Y-17520
X54311Y-18110
X54311Y-18701
X54382Y-38413
X54382Y-39004
X54449Y-33421
X54449Y-34031
X54606Y-16634
X54606Y-17224
X54606Y-17815
X54606Y-18406
X54606Y-18996
X54677Y-38098
X54677Y-38709
X54677Y-39319
X54744Y-33126
X54744Y-33717
X54902Y-16339
X54902Y-16929
X54902Y-17520
X54902Y-18110
X54902Y-18701
X54972Y-38413
X54972Y-39004
X55039Y-33421
X55039Y-34031
X55197Y-16634
X55197Y-17224
X55197Y-17815
X55197Y-18406
X55197Y-18996
X55268Y-38098
X55268Y-38709
X55268Y-39319
X55335Y-33126
X55335Y-33717
X55492Y-16339
X55492Y-16929
X55492Y-17520
X55492Y-18110
X55492Y-18701
X55563Y-38413
X55563Y-39004
X55630Y-33421
X55630Y-34031
X55787Y-16634
X55787Y-17224
X55787Y-17815
X55787Y-18406
X55787Y-18996
X55858Y-38098
X55858Y-38709
X55858Y-39319
X55925Y-33126
X55925Y-33717
X55957Y-11991
X56083Y-16339
X56083Y-16929
X56083Y-17520
X56083Y-18110
X56083Y-18701
X56154Y-38413
X56154Y-39004
X56220Y-33421
X56220Y-34031
X56378Y-16634
X56378Y-17224
X56378Y-17815
X56378Y-18406
X56378Y-18996
X56449Y-38098
X56449Y-38709
X56449Y-39319
X56516Y-33126
X56516Y-33717
X56614Y-14045
X56673Y-16339
X56673Y-16929
X56673Y-17520
X56673Y-18110
X56673Y-18701
X56744Y-38413
X56744Y-39004
X56811Y-33421
X56811Y-34031
X57039Y-38098
X57039Y-38709
X57039Y-39319
X57106Y-33126
X57106Y-33717
X57335Y-38413
X57335Y-39004
X57402Y-33421
X57402Y-34031
T2
X46102Y-44016
X46102Y-44803
X46890Y-44016
X46890Y-44803
X47677Y-44016
X47677Y-44803
X48465Y-44016
X48465Y-44803
X40354Y-35433
X40354Y-36220
X41142Y-35433
X41142Y-36220
X41929Y-35433
X41929Y-36220
X42717Y-35433
X42717Y-36220
X18228Y-35276
X18228Y-36063
X19016Y-35276
X19016Y-36063
X19803Y-35276
X19803Y-36063
X20591Y-35276
X20591Y-36063
X21378Y-35276
X21378Y-36063
X22165Y-35276
X22165Y-36063
X22953Y-35276
X22953Y-36063
X23740Y-35276
X23740Y-36063
X24528Y-35276
X24528Y-36063
X25315Y-35276
X25315Y-36063
X26102Y-35276
X26102Y-36063
X26890Y-35276
X26890Y-36063
X27677Y-35276
X27677Y-36063
X28465Y-35276
X28465Y-36063
X29252Y-35276
X29252Y-36063
X30039Y-35276
X30039Y-36063
X30827Y-35276
X30827Y-36063
X31614Y-35276
X31614Y-36063
X32402Y-35276
X32402Y-36063
X33189Y-35276
X33189Y-36063
X26457Y-15551
X26457Y-16339
X27244Y-15551
X27244Y-16339
X28031Y-15551
X28031Y-16339
X28819Y-15551
X28819Y-16339
X40157Y-15748
X40157Y-16535
X40945Y-15748
X40945Y-16535
X41732Y-15748
X41732Y-16535
X42520Y-15748
X42520Y-16535
X33504Y-15669
X33504Y-16457
X34291Y-15669
X34291Y-16457
X35079Y-15669
X35079Y-16457
X35866Y-15669
X35866Y-16457
X49882Y-15512
X49882Y-16299
X50669Y-15512
X50669Y-16299
X51457Y-15512
X51457Y-16299
X52244Y-15512
X52244Y-16299
X19764Y-15512
X19764Y-16299
X20551Y-15512
X20551Y-16299
X21339Y-15512
X21339Y-16299
X22126Y-15512
X22126Y-16299
T3
X24254Y-44381
X24254Y-45381
X25254Y-44381
X25254Y-45381
X26254Y-44381
X26254Y-45381
X27254Y-44381
X27254Y-45381
X28254Y-44381
X28254Y-45381
X28291Y-12141
X29291Y-12141
X30291Y-12141
X31291Y-12141
X45516Y-26925
X46516Y-26925
X26197Y-30085
X27197Y-30085
X21102Y-30100
X22102Y-30100
X29563Y-26925
X30563Y-26925
X31563Y-26925
X13268Y-43819
X47303Y-49069
X48303Y-49069
X49303Y-49069
X50303Y-49069
X37535Y-26925
X38535Y-26925
X39535Y-26925
X28627Y-30085
X29627Y-30085
X33488Y-43120
X33488Y-44120
X34488Y-43120
X34488Y-44120
X35488Y-43120
X35488Y-44120
X36488Y-43120
X36488Y-44120
X37488Y-43120
X37488Y-44120
X34768Y-12168
X35768Y-12168
X36768Y-12168
X37768Y-12168
X48160Y-26925
X49160Y-26925
X23767Y-30070
X24767Y-30070
X11890Y-43819
X45472Y-29882
X31181Y-28898
X41437Y-26925
X42437Y-26925
X43437Y-26925
X33622Y-26925
X34622Y-26925
X35622Y-26925
X12398Y-45329
X12398Y-46329
X16348Y-48077
X16348Y-49077
X17348Y-48077
X17348Y-49077
X18348Y-48077
X18348Y-49077
X19348Y-48077
X19348Y-49077
X20348Y-48077
X20348Y-49077
X21348Y-48077
X21348Y-49077
X22348Y-48077
X22348Y-49077
X23348Y-48077
X23348Y-49077
X24348Y-48077
X24348Y-49077
X25348Y-48077
X25348Y-49077
X26348Y-48077
X26348Y-49077
X27348Y-48077
X27348Y-49077
X28348Y-48077
X28348Y-49077
X29348Y-48077
X29348Y-49077
X30348Y-48077
X30348Y-49077
X31348Y-48077
X31348Y-49077
X32348Y-48077
X32348Y-49077
X33348Y-48077
X33348Y-49077
X34348Y-48077
X34348Y-49077
X35348Y-48077
X35348Y-49077
X36348Y-48077
X36348Y-49077
X37348Y-48077
X37348Y-49077
X38348Y-48077
X38348Y-49077
X39348Y-48077
X39348Y-49077
X40348Y-48077
X40348Y-49077
X49016Y-29882
X42756Y-29882
X51535Y-42992
X50197Y-42992
X31181Y-30197
X42941Y-49073
X43941Y-49073
X44941Y-49073
X45941Y-49073
X15028Y-12164
X16028Y-12164
X17028Y-12164
X18028Y-12164
X18762Y-30100
X19762Y-30100
X25835Y-26137
X26835Y-26137
X27835Y-26137
X21824Y-12164
X22824Y-12164
X23824Y-12164
X24824Y-12164
X41415Y-12164
X42415Y-12164
X43415Y-12164
X44415Y-12164
X16140Y-44381
X16140Y-45381
X17140Y-44381
X17140Y-45381
X18140Y-44381
X18140Y-45381
X19140Y-44381
X19140Y-45381
X20140Y-44381
X20140Y-45381
X38622Y-29843
T4
X49154Y-12283
X50531Y-12283
T5
X55827Y-21772
X55827Y-24724
T6
X19291Y-14173
X45630Y-42677
X39882Y-34094
X17756Y-33937
X25984Y-14213
X39685Y-14409
X33031Y-14331
X49409Y-14173
T7
X49724Y-19094
X51890Y-19094
X40236Y-19134
X42402Y-19134
X33504Y-19134
X35669Y-19134
X19843Y-19213
X22008Y-19213
X26575Y-19173
X28740Y-19173
T8
X14252Y-15622
X14252Y-18622
T9
X18112Y-21969
X19553Y-21969
X21313Y-21969
X22754Y-21969
X46827Y-21890
X48268Y-21890
X50028Y-21890
X51469Y-21890
X38703Y-21969
X40144Y-21969
X41904Y-21969
X43344Y-21969
X32246Y-21969
X33687Y-21969
X35447Y-21969
X36888Y-21969
X24884Y-21969
X26325Y-21969
X28085Y-21969
X29526Y-21969
T0
M30
