%TF.GenerationSoftware,KiCad,Pcbnew,(5.1.6)-1*%
%TF.CreationDate,2021-03-29T16:14:19-07:00*%
%TF.ProjectId,expansion,65787061-6e73-4696-9f6e-2e6b69636164,1.03*%
%TF.SameCoordinates,Original*%
%TF.FileFunction,Soldermask,Top*%
%TF.FilePolarity,Negative*%
%FSLAX46Y46*%
G04 Gerber Fmt 4.6, Leading zero omitted, Abs format (unit mm)*
G04 Created by KiCad (PCBNEW (5.1.6)-1) date 2021-03-29 16:14:19*
%MOMM*%
%LPD*%
G01*
G04 APERTURE LIST*
%ADD10C,1.624000*%
%ADD11R,1.624000X1.624000*%
%ADD12C,2.500000*%
%ADD13R,2.500000X2.500000*%
%ADD14O,3.400000X2.800000*%
%ADD15C,4.301160*%
%ADD16O,1.800000X1.800000*%
%ADD17R,1.800000X1.800000*%
%ADD18R,2.100000X2.100000*%
%ADD19C,2.600000*%
%ADD20C,1.420800*%
%ADD21C,1.497000*%
%ADD22R,3.100000X5.100000*%
%ADD23C,2.005000*%
G04 APERTURE END LIST*
D10*
%TO.C,J9*%
X75090000Y-68389000D03*
X77630000Y-68389000D03*
D11*
X80170000Y-68389000D03*
%TD*%
D12*
%TO.C,J29*%
X36200000Y-39680000D03*
D13*
X36200000Y-47300000D03*
%TD*%
D10*
%TO.C,J1*%
X102484800Y-124655000D03*
X102484800Y-122115000D03*
X99944800Y-124655000D03*
X99944800Y-122115000D03*
X97404800Y-124655000D03*
X97404800Y-122115000D03*
X94864800Y-124655000D03*
X94864800Y-122115000D03*
X92324800Y-124655000D03*
X92324800Y-122115000D03*
X77084800Y-124655000D03*
X89784800Y-124655000D03*
X89784800Y-122115000D03*
X51684800Y-122115000D03*
X49144800Y-122115000D03*
X46604800Y-122115000D03*
X44064800Y-122115000D03*
X87244800Y-122115000D03*
X84704800Y-122115000D03*
X87244800Y-124655000D03*
X84704800Y-124655000D03*
X82164800Y-124655000D03*
X79624800Y-124655000D03*
X74544800Y-124655000D03*
X82164800Y-122115000D03*
X72004800Y-124655000D03*
X69464800Y-124655000D03*
X79624800Y-122115000D03*
X66924800Y-124655000D03*
X77084800Y-122115000D03*
X64384800Y-124655000D03*
X74544800Y-122115000D03*
X61844800Y-124655000D03*
X72004800Y-122115000D03*
X59304800Y-124655000D03*
X69464800Y-122115000D03*
X56764800Y-124655000D03*
X66924800Y-122115000D03*
X54224800Y-124655000D03*
X64384800Y-122115000D03*
X51684800Y-124655000D03*
X61844800Y-122115000D03*
X49144800Y-124655000D03*
X59304800Y-122115000D03*
X46604800Y-124655000D03*
X56764800Y-122115000D03*
X44064800Y-124655000D03*
X54224800Y-122115000D03*
X41524800Y-124655000D03*
D11*
X41524800Y-122115000D03*
%TD*%
D10*
%TO.C,J17*%
X124850000Y-31200000D03*
D11*
X128350000Y-31200000D03*
%TD*%
D14*
%TO.C,J31*%
X67500000Y-48700000D03*
G36*
G01*
X74440740Y-50100000D02*
X71559260Y-50100000D01*
G75*
G02*
X71300000Y-49840740I0J259260D01*
G01*
X71300000Y-47559260D01*
G75*
G02*
X71559260Y-47300000I259260J0D01*
G01*
X74440740Y-47300000D01*
G75*
G02*
X74700000Y-47559260I0J-259260D01*
G01*
X74700000Y-49840740D01*
G75*
G02*
X74440740Y-50100000I-259260J0D01*
G01*
G37*
%TD*%
D11*
%TO.C,J28*%
X31490000Y-117675000D03*
D10*
X31490000Y-115135000D03*
%TD*%
%TO.C,J27*%
X50195100Y-76453200D03*
D11*
X47655100Y-76453200D03*
%TD*%
%TO.C,J26*%
X53598700Y-76453200D03*
D10*
X56138700Y-76453200D03*
%TD*%
%TO.C,J25*%
X62907800Y-76377000D03*
D11*
X60367800Y-76377000D03*
%TD*%
D10*
%TO.C,J24*%
X118150000Y-68389000D03*
D11*
X115610000Y-68389000D03*
%TD*%
%TO.C,J23*%
X66540000Y-76415100D03*
D10*
X69080000Y-76415100D03*
%TD*%
D11*
%TO.C,J21*%
X122327560Y-68389000D03*
D10*
X124867560Y-68389000D03*
%TD*%
%TO.C,J20*%
X75252200Y-76415100D03*
D11*
X72712200Y-76415100D03*
%TD*%
D10*
%TO.C,J3*%
X112814060Y-30896060D03*
X110274060Y-30896060D03*
X107734060Y-30896060D03*
D11*
X105194060Y-30896060D03*
%TD*%
D15*
%TO.C,M7*%
X32853520Y-123694960D03*
%TD*%
%TO.C,M6*%
X147852020Y-31696160D03*
%TD*%
%TO.C,M5*%
X32853520Y-31696160D03*
%TD*%
%TO.C,M4*%
X147852020Y-123694960D03*
%TD*%
D16*
%TO.C,J15*%
X85060000Y-109525000D03*
X85060000Y-112065000D03*
X87600000Y-109525000D03*
X87600000Y-112065000D03*
X90140000Y-109525000D03*
X90140000Y-112065000D03*
X92680000Y-109525000D03*
X92680000Y-112065000D03*
X95220000Y-109525000D03*
D17*
X95220000Y-112065000D03*
%TD*%
D10*
%TO.C,J14*%
X127770000Y-124635000D03*
X125230000Y-124635000D03*
X122690000Y-124635000D03*
D11*
X120150000Y-124635000D03*
%TD*%
D10*
%TO.C,J18*%
X40996000Y-112728000D03*
X40996000Y-115268000D03*
X43536000Y-112728000D03*
X43536000Y-115268000D03*
X46076000Y-112728000D03*
X46076000Y-115268000D03*
X48616000Y-112728000D03*
X48616000Y-115268000D03*
X51156000Y-112728000D03*
D11*
X51156000Y-115268000D03*
%TD*%
D10*
%TO.C,J19*%
X61604600Y-112728000D03*
X61604600Y-115268000D03*
X64144600Y-112728000D03*
X64144600Y-115268000D03*
X66684600Y-112728000D03*
X66684600Y-115268000D03*
X69224600Y-112728000D03*
X69224600Y-115268000D03*
X71764600Y-112728000D03*
D11*
X71764600Y-115268000D03*
%TD*%
D10*
%TO.C,J12*%
X65620000Y-66389000D03*
X68160000Y-66389000D03*
D11*
X70700000Y-66389000D03*
%TD*%
%TO.C,J2*%
X110330000Y-68389000D03*
D10*
X107790000Y-68389000D03*
X105250000Y-68389000D03*
%TD*%
%TO.C,J4*%
X95340000Y-68389000D03*
X97880000Y-68389000D03*
D11*
X100420000Y-68389000D03*
%TD*%
%TO.C,J6*%
X90480000Y-68389000D03*
D10*
X87940000Y-68389000D03*
X85400000Y-68389000D03*
%TD*%
D11*
%TO.C,J5*%
X88311180Y-30906060D03*
D10*
X90851180Y-30906060D03*
X93391180Y-30906060D03*
X95931180Y-30906060D03*
%TD*%
%TO.C,J7*%
X79479420Y-30837800D03*
X76939420Y-30837800D03*
X74399420Y-30837800D03*
D11*
X71859420Y-30837800D03*
%TD*%
%TO.C,J8*%
X55434120Y-30896060D03*
D10*
X57974120Y-30896060D03*
X60514120Y-30896060D03*
X63054120Y-30896060D03*
%TD*%
%TO.C,J10*%
X45792280Y-30896060D03*
X43252280Y-30896060D03*
X40712280Y-30896060D03*
D11*
X38172280Y-30896060D03*
%TD*%
D10*
%TO.C,J22*%
X109070000Y-124645000D03*
X111610000Y-124645000D03*
X114150000Y-124645000D03*
D11*
X116690000Y-124645000D03*
%TD*%
%TO.C,J30*%
G36*
G01*
X57340740Y-50200000D02*
X54459260Y-50200000D01*
G75*
G02*
X54200000Y-49940740I0J259260D01*
G01*
X54200000Y-47659260D01*
G75*
G02*
X54459260Y-47400000I259260J0D01*
G01*
X57340740Y-47400000D01*
G75*
G02*
X57600000Y-47659260I0J-259260D01*
G01*
X57600000Y-49940740D01*
G75*
G02*
X57340740Y-50200000I-259260J0D01*
G01*
G37*
D14*
X50400000Y-48800000D03*
%TD*%
%TO.C,J32*%
X85100000Y-48600000D03*
G36*
G01*
X92040740Y-50000000D02*
X89159260Y-50000000D01*
G75*
G02*
X88900000Y-49740740I0J259260D01*
G01*
X88900000Y-47459260D01*
G75*
G02*
X89159260Y-47200000I259260J0D01*
G01*
X92040740Y-47200000D01*
G75*
G02*
X92300000Y-47459260I0J-259260D01*
G01*
X92300000Y-49740740D01*
G75*
G02*
X92040740Y-50000000I-259260J0D01*
G01*
G37*
%TD*%
%TO.C,J33*%
X102200000Y-48600000D03*
G36*
G01*
X109140740Y-50000000D02*
X106259260Y-50000000D01*
G75*
G02*
X106000000Y-49740740I0J259260D01*
G01*
X106000000Y-47459260D01*
G75*
G02*
X106259260Y-47200000I259260J0D01*
G01*
X109140740Y-47200000D01*
G75*
G02*
X109400000Y-47459260I0J-259260D01*
G01*
X109400000Y-49740740D01*
G75*
G02*
X109140740Y-50000000I-259260J0D01*
G01*
G37*
%TD*%
%TO.C,J34*%
X126300000Y-48500000D03*
G36*
G01*
X133240740Y-49900000D02*
X130359260Y-49900000D01*
G75*
G02*
X130100000Y-49640740I0J259260D01*
G01*
X130100000Y-47359260D01*
G75*
G02*
X130359260Y-47100000I259260J0D01*
G01*
X133240740Y-47100000D01*
G75*
G02*
X133500000Y-47359260I0J-259260D01*
G01*
X133500000Y-49640740D01*
G75*
G02*
X133240740Y-49900000I-259260J0D01*
G01*
G37*
%TD*%
D18*
%TO.C,TP1*%
X79200000Y-76700000D03*
%TD*%
%TO.C,TP2*%
X79200000Y-73400000D03*
%TD*%
%TO.C,TP3*%
X33700000Y-111300000D03*
%TD*%
%TO.C,TP4*%
X30200000Y-111300000D03*
%TD*%
%TO.C,TP5*%
X127500000Y-109200000D03*
%TD*%
%TO.C,TP6*%
X115500000Y-75900000D03*
%TD*%
%TO.C,TP7*%
X108600000Y-75900000D03*
%TD*%
%TO.C,TP8*%
X98100000Y-75800000D03*
%TD*%
%TO.C,TP9*%
X124500000Y-75900000D03*
%TD*%
%TO.C,TP10*%
X130900000Y-109200000D03*
%TD*%
D13*
%TO.C,C3*%
X141800000Y-55300000D03*
D12*
X141800000Y-62800000D03*
%TD*%
D19*
%TO.C,F2*%
X46005000Y-55800000D03*
X49665000Y-55800000D03*
X54135000Y-55800000D03*
X57795000Y-55800000D03*
%TD*%
%TO.C,F3*%
X74995000Y-55800000D03*
X71335000Y-55800000D03*
X66865000Y-55800000D03*
X63205000Y-55800000D03*
%TD*%
%TO.C,F4*%
X81905000Y-55800000D03*
X85565000Y-55800000D03*
X90035000Y-55800000D03*
X93695000Y-55800000D03*
%TD*%
%TO.C,F5*%
X110095000Y-55800000D03*
X106435000Y-55800000D03*
X101965000Y-55800000D03*
X98305000Y-55800000D03*
%TD*%
%TO.C,F6*%
X118940000Y-55600000D03*
X122600000Y-55600000D03*
X127070000Y-55600000D03*
X130730000Y-55600000D03*
%TD*%
D20*
%TO.C,J36*%
X132700000Y-39399999D03*
X132700000Y-41400001D03*
X130700001Y-39399999D03*
X130700001Y-41400001D03*
X128700000Y-39399999D03*
X128700000Y-41400001D03*
X126700002Y-39399999D03*
X126700002Y-41400001D03*
D21*
X125500002Y-36000001D03*
%TD*%
%TO.C,J37*%
X100800002Y-36600001D03*
D20*
X102000002Y-42000001D03*
X102000002Y-39999999D03*
X104000000Y-42000001D03*
X104000000Y-39999999D03*
X106000001Y-42000001D03*
X106000001Y-39999999D03*
X108000000Y-42000001D03*
X108000000Y-39999999D03*
%TD*%
D21*
%TO.C,J39*%
X49000002Y-36000001D03*
D20*
X50200002Y-41400001D03*
X50200002Y-39399999D03*
X52200000Y-41400001D03*
X52200000Y-39399999D03*
X54200001Y-41400001D03*
X54200001Y-39399999D03*
X56200000Y-41400001D03*
X56200000Y-39399999D03*
%TD*%
%TO.C,J40*%
X91100000Y-39799998D03*
X91100000Y-41800000D03*
X89100001Y-39799998D03*
X89100001Y-41800000D03*
X87100000Y-39799998D03*
X87100000Y-41800000D03*
X85100002Y-39799998D03*
X85100002Y-41800000D03*
D21*
X83900002Y-36400000D03*
%TD*%
D20*
%TO.C,J41*%
X73200000Y-39500000D03*
X73200000Y-41500002D03*
X71200001Y-39500000D03*
X71200001Y-41500002D03*
X69200000Y-39500000D03*
X69200000Y-41500002D03*
X67200002Y-39500000D03*
X67200002Y-41500002D03*
D21*
X66000002Y-36100002D03*
%TD*%
D22*
%TO.C,HS1*%
X38400000Y-123600000D03*
%TD*%
%TO.C,HS2*%
X105700000Y-123500000D03*
%TD*%
D20*
%TO.C,J16*%
X123100000Y-111799999D03*
X123100000Y-113800001D03*
X121100001Y-111799999D03*
X121100001Y-113800001D03*
X119100000Y-111799999D03*
X119100000Y-113800001D03*
X117100002Y-111799999D03*
X117100002Y-113800001D03*
D21*
X115900002Y-108400001D03*
%TD*%
D20*
%TO.C,J42*%
X84300001Y-89599998D03*
X84300001Y-91600000D03*
X82300000Y-89599998D03*
X82300000Y-91600000D03*
X80300002Y-89599998D03*
X80300002Y-91600000D03*
X78300000Y-89599998D03*
X78300000Y-91600000D03*
X76300002Y-89599998D03*
X76300002Y-91600000D03*
X74300001Y-89599998D03*
X74300001Y-91600000D03*
X72300000Y-89599998D03*
X72300000Y-91600000D03*
X70300001Y-89599998D03*
X70300001Y-91600000D03*
X68300000Y-89599998D03*
X68300000Y-91600000D03*
X66300002Y-89599998D03*
X66300002Y-91600000D03*
X64300001Y-89599998D03*
X64300001Y-91600000D03*
X62300002Y-89599998D03*
X62300002Y-91600000D03*
X60300001Y-89599998D03*
X60300001Y-91600000D03*
X58300000Y-89599998D03*
X58300000Y-91600000D03*
X56300001Y-89599998D03*
X56300001Y-91600000D03*
X54300000Y-89599998D03*
X54300000Y-91600000D03*
X52300002Y-89599998D03*
X52300002Y-91600000D03*
X50300001Y-89599998D03*
X50300001Y-91600000D03*
X48299999Y-89599998D03*
X48299999Y-91600000D03*
X46300001Y-89599998D03*
X46300001Y-91600000D03*
D23*
X45100001Y-86200000D03*
%TD*%
D20*
%TO.C,J43*%
X108500000Y-89999998D03*
X108500000Y-92000000D03*
X106500001Y-89999998D03*
X106500001Y-92000000D03*
X104500000Y-89999998D03*
X104500000Y-92000000D03*
X102500002Y-89999998D03*
X102500002Y-92000000D03*
D21*
X101300002Y-86600000D03*
%TD*%
M02*
